<svg width="100" height="805" viewBox="0 0 100 805" fill="none" xmlns="http://www.w3.org/2000/svg">
<rect x="4" y="9" width="91" height="796" fill="#31363F"/>
<rect y="705" width="100" height="100" rx="5" fill="#50577A"/>
<rect width="100" height="100" rx="5" fill="#50577A"/>
<path d="M32.472 652.344H45.752L45.752 636.344H51.384L51.384 652.344H65.368V632.856H71V659.768H26.84L26.84 633.208L32.472 634.04L32.472 652.344ZM71 601.937V609.873L53.176 597.745L37.208 608.529V600.273L49.112 593.361L37.208 586.449V578.577L52.888 589.137L71 576.977V585.393L57.208 593.681L71 601.937ZM36.312 536.074C36.312 533.087 37.048 530.698 38.52 528.906C39.9707 527.114 42.0293 525.813 44.696 525.002C47.3413 524.191 50.456 523.786 54.04 523.786C57.4747 523.786 60.536 524.277 63.224 525.258C65.912 526.239 68.024 527.701 69.56 529.642C71.096 531.562 71.864 533.951 71.864 536.81C71.864 540.351 70.616 543.21 68.12 545.386H83.992L84.792 552.554H37.208L37.208 546.314L41.56 545.866C39.8107 544.586 38.4987 543.103 37.624 541.418C36.7493 539.711 36.312 537.93 36.312 536.074ZM41.848 538.058C41.848 539.658 42.328 541.066 43.288 542.282C44.248 543.498 45.3787 544.533 46.68 545.386H62.488C63.704 544.575 64.6427 543.615 65.304 542.506C65.944 541.375 66.264 540.106 66.264 538.698C66.264 536.287 65.2933 534.453 63.352 533.194C61.4107 531.935 58.3173 531.306 54.072 531.306C51.192 531.306 48.856 531.562 47.064 532.074C45.2507 532.565 43.928 533.311 43.096 534.314C42.264 535.295 41.848 536.543 41.848 538.058ZM56.408 492.227C58.712 492.078 60.6 491.587 62.072 490.755C63.5227 489.923 64.5893 488.835 65.272 487.491C65.9547 486.126 66.296 484.632 66.296 483.011C66.296 481.347 66.04 479.811 65.528 478.403C65.016 476.995 64.2907 475.576 63.352 474.147L67.64 471.043C68.92 472.622 69.944 474.467 70.712 476.579C71.48 478.691 71.864 480.952 71.864 483.363C71.864 486.862 71.1173 489.827 69.624 492.259C68.1307 494.67 66.0507 496.504 63.384 497.763C60.7173 499.022 57.6347 499.651 54.136 499.651C50.744 499.651 47.7147 499.032 45.048 497.795C42.36 496.558 40.2373 494.787 38.68 492.483C37.1013 490.179 36.312 487.427 36.312 484.227C36.312 481.219 36.9947 478.638 38.36 476.483C39.7253 474.307 41.6667 472.632 44.184 471.459C46.68 470.264 49.688 469.667 53.208 469.667C53.784 469.667 54.36 469.688 54.936 469.731C55.4907 469.752 55.9813 469.784 56.408 469.827V492.227ZM41.624 484.163C41.624 486.403 42.424 488.259 44.024 489.731C45.624 491.182 48.12 492.024 51.512 492.259V476.611C48.3333 476.675 45.8907 477.358 44.184 478.659C42.4773 479.939 41.624 481.774 41.624 484.163ZM71 443.484H65.88V438.524H42.296V443.484H37.208V433.052L45.048 431.74C42.2107 430.481 40.056 428.924 38.584 427.068C37.0907 425.191 36.344 422.78 36.344 419.836C36.344 418.833 36.4293 417.937 36.6 417.148C36.7493 416.337 36.952 415.537 37.208 414.748L43.352 416.892C43.16 417.575 43.0213 418.215 42.936 418.812C42.8293 419.409 42.776 420.071 42.776 420.796C42.776 423.249 43.6933 425.372 45.528 427.164C47.3627 428.935 49.9653 430.332 53.336 431.356H65.88L65.88 424.54H71L71 443.484ZM49.656 421.084H41.336L37.208 420.188L37.208 414.748L49.656 415.964V421.084ZM37.208 370.965H65.752V361.781H71V388.245H65.752V378.133H42.456V387.925H37.208V370.965ZM20.664 375.957C20.664 374.549 21.0907 373.418 21.944 372.565C22.7973 371.69 23.864 371.253 25.144 371.253C26.424 371.253 27.5013 371.69 28.376 372.565C29.2507 373.418 29.688 374.549 29.688 375.957C29.688 377.322 29.2507 378.442 28.376 379.317C27.5013 380.192 26.424 380.629 25.144 380.629C23.864 380.629 22.7973 380.192 21.944 379.317C21.0907 378.442 20.664 377.322 20.664 375.957ZM56.408 329.102C58.712 328.953 60.6 328.462 62.072 327.63C63.5227 326.798 64.5893 325.71 65.272 324.366C65.9547 323.001 66.296 321.507 66.296 319.886C66.296 318.222 66.04 316.686 65.528 315.278C65.016 313.87 64.2907 312.451 63.352 311.022L67.64 307.918C68.92 309.497 69.944 311.342 70.712 313.454C71.48 315.566 71.864 317.827 71.864 320.238C71.864 323.737 71.1173 326.702 69.624 329.134C68.1307 331.545 66.0507 333.379 63.384 334.638C60.7173 335.897 57.6347 336.526 54.136 336.526C50.744 336.526 47.7147 335.907 45.048 334.67C42.36 333.433 40.2373 331.662 38.68 329.358C37.1013 327.054 36.312 324.302 36.312 321.102C36.312 318.094 36.9947 315.513 38.36 313.358C39.7253 311.182 41.6667 309.507 44.184 308.334C46.68 307.139 49.688 306.542 53.208 306.542C53.784 306.542 54.36 306.563 54.936 306.606C55.4907 306.627 55.9813 306.659 56.408 306.702L56.408 329.102ZM41.624 321.038C41.624 323.278 42.424 325.134 44.024 326.606C45.624 328.057 48.12 328.899 51.512 329.134L51.512 313.486C48.3333 313.55 45.8907 314.233 44.184 315.534C42.4773 316.814 41.624 318.649 41.624 321.038ZM71 280.679H37.208V274.503L41.592 273.959C39.864 272.551 38.552 270.887 37.656 268.967C36.76 267.047 36.312 265.074 36.312 263.047C36.312 259.89 37.1973 257.532 38.968 255.975C40.7173 254.396 43.1813 253.607 46.36 253.607H71V260.775H49.912C47.9493 260.775 46.3707 260.892 45.176 261.127C43.9813 261.362 43.1173 261.831 42.584 262.535C42.0507 263.218 41.784 264.242 41.784 265.607C41.784 266.695 42.0187 267.73 42.488 268.711C42.9573 269.692 43.576 270.588 44.344 271.399C45.0907 272.21 45.8907 272.914 46.744 273.511H71V280.679ZM65.976 210.016C65.976 208.437 65.7093 206.965 65.176 205.6C64.6213 204.235 63.9067 202.933 63.032 201.696L67.64 198.368C68.8987 199.84 69.9227 201.632 70.712 203.744C71.48 205.835 71.864 208 71.864 210.24C71.864 213.696 71.1387 216.651 69.688 219.104C68.216 221.557 66.1573 223.435 63.512 224.736C60.8667 226.037 57.784 226.688 54.264 226.688C50.8293 226.688 47.768 226.037 45.08 224.736C42.3707 223.413 40.2373 221.515 38.68 219.04C37.1013 216.565 36.312 213.589 36.312 210.112C36.312 207.808 36.6533 205.685 37.336 203.744C38.0187 201.803 39.032 200.021 40.376 198.4L44.888 201.696C43.9707 203.019 43.2773 204.373 42.808 205.76C42.3173 207.125 42.072 208.533 42.072 209.984C42.072 212.651 43.0533 214.837 45.016 216.544C46.9787 218.229 50.0613 219.072 54.264 219.072C57.08 219.072 59.352 218.688 61.08 217.92C62.7867 217.131 64.0347 216.053 64.824 214.688C65.592 213.323 65.976 211.765 65.976 210.016ZM56.408 165.977C58.712 165.828 60.6 165.337 62.072 164.505C63.5227 163.673 64.5893 162.585 65.272 161.241C65.9547 159.876 66.296 158.382 66.296 156.761C66.296 155.097 66.04 153.561 65.528 152.153C65.016 150.745 64.2907 149.326 63.352 147.897L67.64 144.793C68.92 146.372 69.944 148.217 70.712 150.329C71.48 152.441 71.864 154.702 71.864 157.113C71.864 160.612 71.1173 163.577 69.624 166.009C68.1307 168.42 66.0507 170.254 63.384 171.513C60.7173 172.772 57.6347 173.401 54.136 173.401C50.744 173.401 47.7147 172.782 45.048 171.545C42.36 170.308 40.2373 168.537 38.68 166.233C37.1013 163.929 36.312 161.177 36.312 157.977C36.312 154.969 36.9947 152.388 38.36 150.233C39.7253 148.057 41.6667 146.382 44.184 145.209C46.68 144.014 49.688 143.417 53.208 143.417C53.784 143.417 54.36 143.438 54.936 143.481C55.4907 143.502 55.9813 143.534 56.408 143.577V165.977ZM41.624 157.913C41.624 160.153 42.424 162.009 44.024 163.481C45.624 164.932 48.12 165.774 51.512 166.009V150.361C48.3333 150.425 45.8907 151.108 44.184 152.409C42.4773 153.689 41.624 155.524 41.624 157.913Z" fill="#76ABAE"/>
</svg>
