<svg width="104" height="859" viewBox="0 0 104 859" fill="none" xmlns="http://www.w3.org/2000/svg">
<rect width="104" height="859" fill="#393E46"/>
<rect x="10" y="16" width="83" height="48" rx="24" fill="#948979"/>
<rect x="10" y="794" width="83" height="48" rx="24" fill="#948979"/>
<path d="M34.472 737.344H47.752L47.752 721.344H53.384L53.384 737.344H67.368V717.856H73V744.768H28.84L28.84 718.208L34.472 719.04L34.472 737.344ZM24.84 672.089L25.64 664.921H73V671.225L68.84 671.737C70.44 672.889 71.6773 674.265 72.552 675.865C73.4267 677.465 73.864 679.257 73.864 681.241C73.864 684.142 73.128 686.532 71.656 688.409C70.1627 690.286 68.0827 691.684 65.416 692.601C62.728 693.497 59.624 693.945 56.104 693.945C52.6693 693.945 49.6187 693.412 46.952 692.345C44.264 691.278 42.152 689.753 40.616 687.769C39.08 685.785 38.312 683.396 38.312 680.601C38.312 678.83 38.632 677.241 39.272 675.833C39.8907 674.425 40.7973 673.177 41.992 672.089H24.84ZM43.816 678.713C43.816 681.124 44.8187 683.001 46.824 684.345C48.808 685.689 51.9013 686.361 56.104 686.361C58.984 686.361 61.3307 686.084 63.144 685.529C64.936 684.974 66.2587 684.174 67.112 683.129C67.944 682.084 68.36 680.825 68.36 679.353C68.36 677.732 67.8907 676.324 66.952 675.129C66.0133 673.934 64.8827 672.921 63.56 672.089H47.56C46.3653 672.921 45.448 673.892 44.808 675.001C44.1467 676.11 43.816 677.348 43.816 678.713ZM39.208 630.386H62.824C64.8293 630.386 66.2587 629.991 67.112 629.202C67.9653 628.391 68.392 627.175 68.392 625.554C68.392 624.018 67.9333 622.535 67.016 621.106C66.0987 619.677 64.9787 618.546 63.656 617.714H39.208V610.546H73V616.722L68.68 617.17C70.3653 618.429 71.656 620.018 72.552 621.938C73.4267 623.858 73.864 625.821 73.864 627.826C73.864 631.09 72.968 633.533 71.176 635.154C69.3627 636.754 66.8773 637.554 63.72 637.554H39.208L39.208 630.386ZM67.976 566.891C67.976 565.312 67.7093 563.84 67.176 562.475C66.6213 561.11 65.9067 559.808 65.032 558.571L69.64 555.243C70.8987 556.715 71.9227 558.507 72.712 560.619C73.48 562.71 73.864 564.875 73.864 567.115C73.864 570.571 73.1387 573.526 71.688 575.979C70.216 578.432 68.1573 580.31 65.512 581.611C62.8667 582.912 59.784 583.563 56.264 583.563C52.8293 583.563 49.768 582.912 47.08 581.611C44.3707 580.288 42.2373 578.39 40.68 575.915C39.1013 573.44 38.312 570.464 38.312 566.987C38.312 564.683 38.6533 562.56 39.336 560.619C40.0187 558.678 41.032 556.896 42.376 555.275L46.888 558.571C45.9707 559.894 45.2773 561.248 44.808 562.635C44.3173 564 44.072 565.408 44.072 566.859C44.072 569.526 45.0533 571.712 47.016 573.419C48.9787 575.104 52.0613 575.947 56.264 575.947C59.08 575.947 61.352 575.563 63.08 574.795C64.7867 574.006 66.0347 572.928 66.824 571.563C67.592 570.198 67.976 568.64 67.976 566.891ZM64.712 502.98C66.0347 502.98 67.0053 502.777 67.624 502.372C68.2213 501.967 68.6693 501.316 68.968 500.42L73.832 502.02C73.64 503.684 73.1813 505.113 72.456 506.308C71.7307 507.503 70.632 508.409 69.16 509.028C70.7173 510.265 71.8907 511.833 72.68 513.732C73.4693 515.631 73.864 517.657 73.864 519.812C73.864 523.225 72.904 525.935 70.984 527.94C69.0427 529.924 66.504 530.916 63.368 530.916C59.8053 530.916 57.064 529.529 55.144 526.756C53.224 523.983 52.264 520.015 52.264 514.852L52.264 510.02H50.056C47.88 510.02 46.312 510.681 45.352 512.004C44.392 513.305 43.912 515.151 43.912 517.54C43.912 518.649 44.0613 519.993 44.36 521.572C44.6373 523.151 45.0747 524.804 45.672 526.532L40.616 528.292C39.8267 526.18 39.2507 524.111 38.888 522.084C38.504 520.057 38.312 518.18 38.312 516.452C38.312 511.929 39.3147 508.559 41.32 506.34C43.3253 504.1 46.0987 502.98 49.64 502.98H64.712ZM68.584 517.636C68.584 516.185 68.2 514.767 67.432 513.38C66.664 511.993 65.5867 510.873 64.2 510.02H56.744V513.988C56.744 517.359 57.3093 519.769 58.44 521.22C59.5493 522.671 61.0853 523.396 63.048 523.396C64.84 523.396 66.216 522.916 67.176 521.956C68.1147 520.975 68.584 519.535 68.584 517.636ZM71.208 446.205C71.9973 447.442 72.6373 448.925 73.128 450.653C73.6187 452.381 73.864 454.184 73.864 456.061C73.864 459.986 72.8507 462.973 70.824 465.021C68.776 467.048 66.088 468.061 62.76 468.061H44.424V475.581H39.208V468.061H31.656L30.792 460.893H39.208V449.501L44.424 450.301V460.893H62.696C64.5093 460.893 65.864 460.445 66.76 459.549C67.6347 458.632 68.072 457.138 68.072 455.069C68.072 453.832 67.9227 452.69 67.624 451.645C67.3253 450.6 66.9413 449.65 66.472 448.797L71.208 446.205ZM39.208 401.59H67.752V392.406H73L73 418.87H67.752V408.758H44.456V418.55H39.208L39.208 401.59ZM22.664 406.582C22.664 405.174 23.0907 404.043 23.944 403.19C24.7973 402.315 25.864 401.878 27.144 401.878C28.424 401.878 29.5013 402.315 30.376 403.19C31.2507 404.043 31.688 405.174 31.688 406.582C31.688 407.947 31.2507 409.067 30.376 409.942C29.5013 410.817 28.424 411.254 27.144 411.254C25.864 411.254 24.7973 410.817 23.944 409.942C23.0907 409.067 22.664 407.947 22.664 406.582ZM38.312 352.143C38.312 348.836 39.048 346.052 40.52 343.791C41.992 341.53 44.0507 339.823 46.696 338.671C49.3413 337.498 52.456 336.911 56.04 336.911C59.6027 336.911 62.728 337.508 65.416 338.703C68.0827 339.876 70.1627 341.604 71.656 343.887C73.128 346.148 73.864 348.911 73.864 352.175C73.864 355.439 73.1493 358.212 71.72 360.495C70.2693 362.756 68.2107 364.484 65.544 365.679C62.8773 366.852 59.7307 367.439 56.104 367.439C52.584 367.439 49.4907 366.852 46.824 365.679C44.1573 364.484 42.0773 362.746 40.584 360.463C39.0693 358.18 38.312 355.407 38.312 352.143ZM43.88 352.143C43.88 354.724 44.872 356.666 46.856 357.967C48.8187 359.268 51.9013 359.919 56.104 359.919C60.2853 359.919 63.368 359.279 65.352 357.999C67.336 356.698 68.328 354.756 68.328 352.175C68.328 349.594 67.336 347.663 65.352 346.383C63.368 345.082 60.264 344.431 56.04 344.431C51.88 344.431 48.8187 345.071 46.856 346.351C44.872 347.631 43.88 349.562 43.88 352.143ZM73 311.304H39.208V305.128L43.592 304.584C41.864 303.176 40.552 301.512 39.656 299.592C38.76 297.672 38.312 295.699 38.312 293.672C38.312 290.515 39.1973 288.157 40.968 286.6C42.7173 285.021 45.1813 284.232 48.36 284.232H73V291.4H51.912C49.9493 291.4 48.3707 291.517 47.176 291.752C45.9813 291.987 45.1173 292.456 44.584 293.16C44.0507 293.843 43.784 294.867 43.784 296.232C43.784 297.32 44.0187 298.355 44.488 299.336C44.9573 300.317 45.576 301.213 46.344 302.024C47.0907 302.835 47.8907 303.539 48.744 304.136H73V311.304Z" fill="#76ABAE"/>
<rect x="28" y="82" width="48" height="177" rx="24" fill="#948979"/>
<rect x="33" y="119" width="38" height="14" fill="#76ABAE"/>
<rect x="33" y="140" width="38" height="14" fill="#76ABAE"/>
</svg>
