<svg width="123" height="843" viewBox="0 0 123 843" fill="none" xmlns="http://www.w3.org/2000/svg">
<rect width="123" height="843" rx="26" fill="#31363F"/>
<path d="M52.76 602.68C50.7333 602.68 49.112 603.075 47.896 603.864C46.68 604.632 45.7947 605.731 45.24 607.16C44.6853 608.568 44.408 610.232 44.408 612.152V617.464H61.592L61.592 612.056C61.592 610.2 61.3147 608.568 60.76 607.16C60.2053 605.752 59.288 604.653 58.008 603.864C56.728 603.075 54.9787 602.68 52.76 602.68ZM52.696 594.872C56.1307 594.872 58.9147 595.608 61.048 597.08C63.1813 598.531 64.7493 600.557 65.752 603.16C66.7547 605.763 67.256 608.749 67.256 612.12V617.464H83V624.888H38.84V612.632C38.84 607.085 39.9813 602.744 42.264 599.608C44.5253 596.451 48.0027 594.872 52.696 594.872ZM83 570.609H77.88V565.649H54.296V570.609H49.208V560.177L57.048 558.865C54.2107 557.606 52.056 556.049 50.584 554.193C49.0907 552.316 48.344 549.905 48.344 546.961C48.344 545.958 48.4293 545.062 48.6 544.273C48.7493 543.462 48.952 542.662 49.208 541.873L55.352 544.017C55.16 544.7 55.0213 545.34 54.936 545.937C54.8293 546.534 54.776 547.196 54.776 547.921C54.776 550.374 55.6933 552.497 57.528 554.289C59.3627 556.06 61.9653 557.457 65.336 558.481H77.88V551.665H83V570.609ZM61.656 548.209H53.336L49.208 547.313V541.873L61.656 543.089V548.209ZM48.312 503.018C48.312 499.711 49.048 496.927 50.52 494.666C51.992 492.405 54.0507 490.698 56.696 489.546C59.3413 488.373 62.456 487.786 66.04 487.786C69.6027 487.786 72.728 488.383 75.416 489.578C78.0827 490.751 80.1627 492.479 81.656 494.762C83.128 497.023 83.864 499.786 83.864 503.05C83.864 506.314 83.1493 509.087 81.72 511.37C80.2693 513.631 78.2107 515.359 75.544 516.554C72.8773 517.727 69.7307 518.314 66.104 518.314C62.584 518.314 59.4907 517.727 56.824 516.554C54.1573 515.359 52.0773 513.621 50.584 511.338C49.0693 509.055 48.312 506.282 48.312 503.018ZM53.88 503.018C53.88 505.599 54.872 507.541 56.856 508.842C58.8187 510.143 61.9013 510.794 66.104 510.794C70.2853 510.794 73.368 510.154 75.352 508.874C77.336 507.573 78.328 505.631 78.328 503.05C78.328 500.469 77.336 498.538 75.352 497.258C73.368 495.957 70.264 495.306 66.04 495.306C61.88 495.306 58.8187 495.946 56.856 497.226C54.872 498.506 53.88 500.437 53.88 503.018ZM49.208 438.723H75.896C80.0987 438.723 83.5867 439.598 86.36 441.347C89.1333 443.075 91.3413 445.614 92.984 448.963C94.648 452.312 95.9173 456.398 96.792 461.219L91.288 462.371C90.648 459.022 89.7627 456.11 88.632 453.635C87.5013 451.16 85.9547 449.251 83.992 447.907C82.0293 446.563 79.4907 445.891 76.376 445.891H54.456V459.235H49.208L49.208 438.723ZM32.664 444.323C32.664 442.936 33.0907 441.806 33.944 440.931C34.7973 440.056 35.864 439.619 37.144 439.619C38.424 439.619 39.5013 440.056 40.376 440.931C41.2507 441.806 41.688 442.936 41.688 444.323C41.688 445.71 41.2507 446.84 40.376 447.715C39.5013 448.568 38.424 448.995 37.144 448.995C35.864 448.995 34.7973 448.568 33.944 447.715C33.0907 446.84 32.664 445.71 32.664 444.323ZM68.408 401.852C70.712 401.703 72.6 401.212 74.072 400.38C75.5227 399.548 76.5893 398.46 77.272 397.116C77.9547 395.751 78.296 394.257 78.296 392.636C78.296 390.972 78.04 389.436 77.528 388.028C77.016 386.62 76.2907 385.201 75.352 383.772L79.64 380.668C80.92 382.247 81.944 384.092 82.712 386.204C83.48 388.316 83.864 390.577 83.864 392.988C83.864 396.487 83.1173 399.452 81.624 401.884C80.1307 404.295 78.0507 406.129 75.384 407.388C72.7173 408.647 69.6347 409.276 66.136 409.276C62.744 409.276 59.7147 408.657 57.048 407.42C54.36 406.183 52.2373 404.412 50.68 402.108C49.1013 399.804 48.312 397.052 48.312 393.852C48.312 390.844 48.9947 388.263 50.36 386.108C51.7253 383.932 53.6667 382.257 56.184 381.084C58.68 379.889 61.688 379.292 65.208 379.292C65.784 379.292 66.36 379.313 66.936 379.356C67.4907 379.377 67.9813 379.409 68.408 379.452L68.408 401.852ZM53.624 393.788C53.624 396.028 54.424 397.884 56.024 399.356C57.624 400.807 60.12 401.649 63.512 401.884L63.512 386.236C60.3333 386.3 57.8907 386.983 56.184 388.284C54.4773 389.564 53.624 391.399 53.624 393.788ZM77.976 337.141C77.976 335.562 77.7093 334.09 77.176 332.725C76.6213 331.36 75.9067 330.058 75.032 328.821L79.64 325.493C80.8987 326.965 81.9227 328.757 82.712 330.869C83.48 332.96 83.864 335.125 83.864 337.365C83.864 340.821 83.1387 343.776 81.688 346.229C80.216 348.682 78.1573 350.56 75.512 351.861C72.8667 353.162 69.784 353.813 66.264 353.813C62.8293 353.813 59.768 353.162 57.08 351.861C54.3707 350.538 52.2373 348.64 50.68 346.165C49.1013 343.69 48.312 340.714 48.312 337.237C48.312 334.933 48.6533 332.81 49.336 330.869C50.0187 328.928 51.032 327.146 52.376 325.525L56.888 328.821C55.9707 330.144 55.2773 331.498 54.808 332.885C54.3173 334.25 54.072 335.658 54.072 337.109C54.072 339.776 55.0533 341.962 57.016 343.669C58.9787 345.354 62.0613 346.197 66.264 346.197C69.08 346.197 71.352 345.813 73.08 345.045C74.7867 344.256 76.0347 343.178 76.824 341.813C77.592 340.448 77.976 338.89 77.976 337.141ZM81.208 270.83C81.9973 272.067 82.6373 273.55 83.128 275.278C83.6187 277.006 83.864 278.809 83.864 280.686C83.864 284.611 82.8507 287.598 80.824 289.646C78.776 291.673 76.088 292.686 72.76 292.686H54.424V300.206H49.208L49.208 292.686H41.656L40.792 285.518H49.208V274.126L54.424 274.926L54.424 285.518H72.696C74.5093 285.518 75.864 285.07 76.76 284.174C77.6347 283.257 78.072 281.763 78.072 279.694C78.072 278.457 77.9227 277.315 77.624 276.27C77.3253 275.225 76.9413 274.275 76.472 273.422L81.208 270.83ZM78.36 232.391C78.36 230.151 77.9653 228.37 77.176 227.047C76.3653 225.724 75.256 225.063 73.848 225.063C72.9307 225.063 72.152 225.255 71.512 225.639C70.8507 226.023 70.2533 226.791 69.72 227.943C69.1653 229.095 68.5893 230.844 67.992 233.191C67.416 235.41 66.7333 237.362 65.944 239.047C65.1547 240.711 64.1307 242.002 62.872 242.919C61.6133 243.836 59.992 244.295 58.008 244.295C56.0667 244.295 54.3707 243.751 52.92 242.663C51.4693 241.575 50.3387 240.018 49.528 237.991C48.7173 235.943 48.312 233.543 48.312 230.791C48.312 227.954 48.6853 225.479 49.432 223.367C50.1787 221.255 51.1067 219.452 52.216 217.959L56.728 220.967C55.8533 222.29 55.1387 223.74 54.584 225.319C54.0293 226.876 53.752 228.636 53.752 230.599C53.752 232.882 54.0933 234.524 54.776 235.527C55.4587 236.508 56.3653 236.999 57.496 236.999C58.328 236.999 59.032 236.754 59.608 236.263C60.1627 235.751 60.6853 234.876 61.176 233.639C61.6453 232.402 62.2 230.652 62.84 228.391C63.4373 226.194 64.1413 224.284 64.952 222.663C65.7627 221.02 66.84 219.751 68.184 218.855C69.5067 217.938 71.2347 217.479 73.368 217.479C75.8 217.479 77.7947 218.183 79.352 219.591C80.888 220.978 82.0293 222.812 82.776 225.095C83.5013 227.356 83.864 229.788 83.864 232.391C83.864 235.527 83.416 238.236 82.52 240.519C81.6027 242.802 80.4613 244.722 79.096 246.279L74.744 242.471C75.8107 241.148 76.6853 239.634 77.368 237.927C78.0293 236.22 78.36 234.375 78.36 232.391Z" fill="#76ABAE"/>
<rect y="735" width="123" height="15" fill="#76ABAE" fill-opacity="0.7"/>
<rect y="714" width="123" height="15" fill="#76ABAE" fill-opacity="0.7"/>
<rect y="693" width="123" height="15" fill="#76ABAE" fill-opacity="0.7"/>
<rect y="80" width="123" height="15" fill="#222831"/>
</svg>
