<svg width="500" height="500" viewBox="0 0 500 500" fill="none" xmlns="http://www.w3.org/2000/svg">
<rect width="500" height="500" fill="#222831"/>
<path d="M246.075 227.966V226.513L249.719 220.773H250.972V222.784H250.23L247.933 226.419V226.487H253.111V227.966H246.075ZM250.264 229.5V227.523L250.298 226.879V220.773H252.028V229.5H250.264Z" fill="#31363F"/>
<path d="M288.042 237.639L250 210L211.958 237.639L226.489 282.361H273.511L288.042 237.639Z" stroke="#31363F" stroke-width="2" stroke-linejoin="round"/>
<path d="M249.963 189.619C249.307 189.619 248.723 189.513 248.212 189.3C247.703 189.084 247.304 188.79 247.014 188.418C246.724 188.045 246.58 187.624 246.58 187.152C246.58 186.788 246.662 186.455 246.827 186.151C246.994 185.844 247.222 185.589 247.509 185.388C247.795 185.183 248.116 185.053 248.472 184.996V184.936C248.006 184.842 247.628 184.616 247.338 184.259C247.048 183.898 246.903 183.479 246.903 183.001C246.903 182.55 247.036 182.148 247.3 181.795C247.564 181.44 247.926 181.162 248.386 180.96C248.849 180.756 249.375 180.653 249.963 180.653C250.551 180.653 251.075 180.756 251.536 180.96C251.999 181.165 252.362 181.445 252.626 181.8C252.891 182.152 253.024 182.553 253.027 183.001C253.024 183.482 252.876 183.901 252.584 184.259C252.291 184.616 251.916 184.842 251.459 184.936V184.996C251.808 185.053 252.125 185.183 252.409 185.388C252.696 185.589 252.923 185.844 253.091 186.151C253.261 186.455 253.348 186.788 253.351 187.152C253.348 187.624 253.202 188.045 252.912 188.418C252.622 188.79 252.222 189.084 251.71 189.3C251.202 189.513 250.619 189.619 249.963 189.619ZM249.963 188.264C250.256 188.264 250.511 188.212 250.73 188.107C250.949 187.999 251.119 187.851 251.241 187.663C251.366 187.473 251.429 187.254 251.429 187.007C251.429 186.754 251.365 186.531 251.237 186.338C251.109 186.142 250.936 185.989 250.717 185.878C250.499 185.764 250.247 185.707 249.963 185.707C249.682 185.707 249.43 185.764 249.209 185.878C248.987 185.989 248.813 186.142 248.685 186.338C248.56 186.531 248.497 186.754 248.497 187.007C248.497 187.254 248.558 187.473 248.68 187.663C248.803 187.851 248.974 187.999 249.196 188.107C249.418 188.212 249.673 188.264 249.963 188.264ZM249.963 184.365C250.207 184.365 250.425 184.315 250.615 184.216C250.805 184.116 250.955 183.979 251.062 183.803C251.17 183.626 251.224 183.423 251.224 183.193C251.224 182.966 251.17 182.767 251.062 182.597C250.955 182.423 250.807 182.288 250.619 182.192C250.432 182.092 250.213 182.043 249.963 182.043C249.716 182.043 249.497 182.092 249.307 182.192C249.116 182.288 248.967 182.423 248.859 182.597C248.754 182.767 248.702 182.966 248.702 183.193C248.702 183.423 248.756 183.626 248.864 183.803C248.972 183.979 249.121 184.116 249.311 184.216C249.501 184.315 249.719 184.365 249.963 184.365Z" fill="#31363F"/>
<path d="M326.085 225.279L250 170L173.916 225.279L202.977 314.721H297.023L326.085 225.279Z" stroke="#31363F" stroke-width="2" stroke-linejoin="round"/>
<path d="M247.504 140.773V149.5H245.659V142.524H245.608L243.609 143.777V142.141L245.77 140.773H247.504ZM249.578 149.5V148.17L252.685 145.294C252.949 145.038 253.171 144.808 253.35 144.604C253.532 144.399 253.669 144.199 253.763 144.003C253.857 143.804 253.904 143.589 253.904 143.359C253.904 143.104 253.846 142.884 253.729 142.699C253.613 142.511 253.453 142.368 253.252 142.268C253.05 142.166 252.821 142.115 252.566 142.115C252.299 142.115 252.066 142.169 251.867 142.277C251.668 142.385 251.515 142.54 251.407 142.741C251.299 142.943 251.245 143.183 251.245 143.462H249.493C249.493 142.891 249.623 142.395 249.881 141.974C250.14 141.554 250.502 141.229 250.968 140.999C251.434 140.768 251.971 140.653 252.578 140.653C253.203 140.653 253.748 140.764 254.211 140.986C254.676 141.205 255.039 141.509 255.297 141.898C255.556 142.287 255.685 142.733 255.685 143.236C255.685 143.565 255.62 143.891 255.489 144.212C255.361 144.533 255.132 144.889 254.803 145.281C254.473 145.67 254.009 146.138 253.409 146.683L252.135 147.932V147.991H255.8V149.5H249.578Z" fill="#31363F"/>
<path d="M364.127 212.918L250 130L135.873 212.918L179.466 347.082H320.534L364.127 212.918Z" stroke="#31363F" stroke-width="2" stroke-linejoin="round"/>
<path d="M247.504 100.773V109.5H245.659V102.524H245.608L243.609 103.777V102.141L245.77 100.773H247.504ZM252.928 109.619C252.479 109.616 252.046 109.541 251.628 109.393C251.213 109.246 250.841 109.006 250.512 108.673C250.182 108.341 249.921 107.901 249.728 107.352C249.537 106.804 249.442 106.131 249.442 105.332C249.445 104.599 249.529 103.945 249.694 103.368C249.861 102.788 250.1 102.297 250.409 101.893C250.722 101.49 251.096 101.183 251.53 100.973C251.965 100.76 252.452 100.653 252.992 100.653C253.574 100.653 254.088 100.767 254.534 100.994C254.98 101.219 255.338 101.524 255.608 101.911C255.881 102.297 256.046 102.73 256.103 103.21H254.283C254.212 102.906 254.063 102.668 253.836 102.494C253.608 102.321 253.327 102.234 252.992 102.234C252.424 102.234 251.992 102.482 251.696 102.976C251.404 103.47 251.255 104.142 251.249 104.991H251.309C251.439 104.733 251.615 104.513 251.837 104.331C252.061 104.146 252.316 104.006 252.6 103.909C252.887 103.81 253.189 103.76 253.507 103.76C254.025 103.76 254.485 103.882 254.888 104.126C255.292 104.368 255.61 104.7 255.843 105.124C256.076 105.547 256.192 106.031 256.192 106.577C256.192 107.168 256.054 107.693 255.779 108.153C255.506 108.614 255.124 108.974 254.632 109.236C254.144 109.494 253.576 109.622 252.928 109.619ZM252.919 108.17C253.203 108.17 253.458 108.102 253.682 107.966C253.907 107.83 254.083 107.645 254.211 107.412C254.338 107.179 254.402 106.918 254.402 106.628C254.402 106.338 254.338 106.078 254.211 105.848C254.086 105.618 253.912 105.435 253.691 105.298C253.469 105.162 253.216 105.094 252.932 105.094C252.719 105.094 252.522 105.134 252.34 105.213C252.161 105.293 252.003 105.403 251.867 105.545C251.733 105.687 251.628 105.852 251.551 106.04C251.475 106.224 251.436 106.422 251.436 106.632C251.436 106.913 251.5 107.17 251.628 107.403C251.759 107.636 251.935 107.822 252.157 107.962C252.381 108.101 252.635 108.17 252.919 108.17Z" fill="#31363F"/>
<path d="M402.169 200.557L250 90L97.8309 200.557L155.954 379.443H344.046L402.169 200.557Z" stroke="#31363F" stroke-width="2" stroke-linejoin="round"/>
<path d="M242.707 69.5V68.1705L245.814 65.294C246.078 65.0384 246.3 64.8082 246.479 64.6037C246.661 64.3991 246.798 64.1989 246.892 64.0028C246.986 63.804 247.033 63.5895 247.033 63.3594C247.033 63.1037 246.974 62.8835 246.858 62.6989C246.741 62.5114 246.582 62.3679 246.381 62.2685C246.179 62.1662 245.95 62.1151 245.695 62.1151C245.428 62.1151 245.195 62.169 244.996 62.277C244.797 62.3849 244.643 62.5398 244.536 62.7415C244.428 62.9432 244.374 63.1832 244.374 63.4616H242.622C242.622 62.8906 242.751 62.3949 243.01 61.9744C243.268 61.554 243.631 61.2287 244.097 60.9986C244.563 60.7685 245.099 60.6534 245.707 60.6534C246.332 60.6534 246.876 60.7642 247.339 60.9858C247.805 61.2045 248.168 61.5085 248.426 61.8977C248.685 62.2869 248.814 62.733 248.814 63.2358C248.814 63.5653 248.749 63.8906 248.618 64.2116C248.49 64.5327 248.261 64.8892 247.932 65.2812C247.602 65.6705 247.138 66.1378 246.538 66.6832L245.264 67.9318V67.9915H248.929V69.5H242.707ZM253.688 69.6918C252.955 69.6889 252.324 69.5085 251.796 69.1506C251.27 68.7926 250.865 68.2741 250.581 67.5952C250.3 66.9162 250.161 66.0994 250.164 65.1449C250.164 64.1932 250.304 63.3821 250.586 62.7116C250.87 62.0412 251.275 61.5312 251.8 61.1818C252.328 60.8295 252.958 60.6534 253.688 60.6534C254.418 60.6534 255.046 60.8295 255.571 61.1818C256.1 61.5341 256.506 62.0455 256.79 62.7159C257.074 63.3835 257.215 64.1932 257.212 65.1449C257.212 66.1023 257.07 66.9205 256.786 67.5994C256.505 68.2784 256.101 68.7969 255.576 69.1548C255.05 69.5128 254.421 69.6918 253.688 69.6918ZM253.688 68.1619C254.188 68.1619 254.587 67.9105 254.885 67.4077C255.184 66.9048 255.331 66.1506 255.328 65.1449C255.328 64.483 255.26 63.9318 255.124 63.4915C254.99 63.0511 254.8 62.7202 254.553 62.4986C254.309 62.277 254.02 62.1662 253.688 62.1662C253.191 62.1662 252.793 62.4148 252.495 62.9119C252.196 63.4091 252.046 64.1534 252.043 65.1449C252.043 65.8153 252.11 66.375 252.243 66.8239C252.38 67.2699 252.571 67.6051 252.819 67.8295C253.066 68.0511 253.355 68.1619 253.688 68.1619Z" fill="#31363F"/>
<path d="M241.776 20.7727V29.5H240.459V20.7727H241.776ZM250.737 20.7727V29.5H249.527L245.091 23.0994H245.01V29.5H243.693V20.7727H244.912L249.352 27.1818H249.433V20.7727H250.737ZM252.228 21.9062V20.7727H258.982V21.9062H256.259V29.5H254.946V21.9062H252.228Z" fill="#76ABAE"/>
<path d="M455.772 184.971H452.946V176.244H455.861C456.716 176.244 457.451 176.419 458.064 176.768C458.678 177.115 459.148 177.613 459.475 178.264C459.804 178.912 459.969 179.689 459.969 180.595C459.969 181.504 459.803 182.285 459.471 182.939C459.141 183.592 458.664 184.095 458.039 184.447C457.414 184.796 456.658 184.971 455.772 184.971ZM454.263 183.821H455.699C456.364 183.821 456.917 183.696 457.357 183.446C457.797 183.193 458.127 182.828 458.346 182.35C458.564 181.87 458.674 181.285 458.674 180.595C458.674 179.91 458.564 179.329 458.346 178.852C458.13 178.375 457.807 178.012 457.378 177.765C456.949 177.518 456.417 177.394 455.78 177.394H454.263V183.821ZM461.607 184.971V176.244H467.078V177.377H462.923V180.037H466.793V181.166H462.923V183.838H467.129V184.971H461.607ZM469.753 176.244L471.841 179.657H471.91L473.998 176.244H475.523L472.804 180.608L475.54 184.971H474.006L471.91 181.605H471.841L469.745 184.971H468.211L470.993 180.608L468.228 176.244H469.753Z" fill="#76ABAE"/>
<path d="M376.959 430.64H375.63C375.578 430.356 375.483 430.106 375.344 429.89C375.205 429.674 375.034 429.49 374.833 429.34C374.631 429.189 374.405 429.076 374.155 428.999C373.908 428.922 373.645 428.884 373.367 428.884C372.864 428.884 372.414 429.01 372.016 429.263C371.621 429.516 371.309 429.887 371.078 430.375C370.851 430.864 370.738 431.461 370.738 432.165C370.738 432.875 370.851 433.475 371.078 433.963C371.309 434.452 371.622 434.821 372.02 435.071C372.418 435.321 372.865 435.446 373.363 435.446C373.638 435.446 373.899 435.409 374.147 435.336C374.397 435.259 374.622 435.147 374.824 434.999C375.026 434.851 375.196 434.671 375.336 434.458C375.478 434.242 375.576 433.995 375.63 433.716L376.959 433.721C376.888 434.15 376.75 434.544 376.546 434.905C376.344 435.263 376.084 435.573 375.766 435.834C375.451 436.093 375.09 436.293 374.684 436.435C374.277 436.577 373.834 436.648 373.354 436.648C372.598 436.648 371.925 436.469 371.334 436.111C370.743 435.75 370.277 435.235 369.936 434.564C369.598 433.894 369.429 433.094 369.429 432.165C369.429 431.233 369.6 430.434 369.941 429.766C370.282 429.096 370.747 428.581 371.338 428.223C371.929 427.863 372.601 427.682 373.354 427.682C373.817 427.682 374.249 427.749 374.649 427.883C375.053 428.013 375.415 428.206 375.736 428.462C376.057 428.715 376.323 429.025 376.533 429.391C376.743 429.755 376.885 430.171 376.959 430.64ZM378.535 436.529V427.802H379.851V431.594H384.202V427.802H385.523V436.529H384.202V432.723H379.851V436.529H378.535ZM388.178 436.529H386.78L389.921 427.802H391.442L394.583 436.529H393.185L390.718 429.387H390.65L388.178 436.529ZM388.413 433.111H392.947V434.219H388.413V433.111Z" fill="#76ABAE"/>
<path d="M106.207 436.529V427.802H111.679V428.935H107.524V431.594H111.393V432.723H107.524V435.395H111.73V436.529H106.207ZM120.482 427.802V436.529H119.271L114.835 430.128H114.754V436.529H113.438V427.802H114.656L119.097 434.211H119.178V427.802H120.482ZM125.228 436.529H122.402V427.802H125.317C126.172 427.802 126.907 427.976 127.52 428.326C128.134 428.672 128.604 429.171 128.931 429.821C129.26 430.469 129.425 431.246 129.425 432.152C129.425 433.061 129.259 433.843 128.927 434.496C128.597 435.15 128.12 435.652 127.495 436.005C126.87 436.354 126.114 436.529 125.228 436.529ZM123.719 435.378H125.155C125.82 435.378 126.373 435.253 126.813 435.003C127.253 434.75 127.583 434.385 127.802 433.908C128.02 433.428 128.13 432.843 128.13 432.152C128.13 431.468 128.02 430.887 127.802 430.409C127.586 429.932 127.263 429.57 126.834 429.323C126.405 429.076 125.873 428.952 125.236 428.952H123.719V435.378Z" fill="#76ABAE"/>
<path d="M27.1799 184.971L24.7595 176.244H26.1444L27.8447 183.002H27.9257L29.6941 176.244H31.0663L32.8348 183.007H32.9157L34.6118 176.244H36.001L33.5763 184.971H32.251L30.4143 178.434H30.3461L28.5095 184.971H27.1799ZM38.5184 176.244V184.971H37.2016V176.244H38.5184ZM45.1959 178.537C45.1505 178.133 44.963 177.821 44.6334 177.599C44.3039 177.375 43.8891 177.262 43.3891 177.262C43.0312 177.262 42.7215 177.319 42.4601 177.433C42.1988 177.544 41.9956 177.697 41.8508 177.893C41.7087 178.086 41.6377 178.306 41.6377 178.554C41.6377 178.761 41.686 178.94 41.7826 179.091C41.882 179.241 42.0113 179.367 42.1704 179.47C42.3323 179.569 42.5056 179.653 42.6902 179.721C42.8749 179.787 43.0525 179.841 43.2229 179.883L44.0752 180.105C44.3536 180.173 44.6391 180.265 44.9317 180.382C45.2243 180.498 45.4956 180.652 45.7456 180.842C45.9956 181.032 46.1973 181.268 46.3508 181.549C46.507 181.831 46.5851 182.167 46.5851 182.559C46.5851 183.054 46.4573 183.492 46.2016 183.876C45.9488 184.26 45.5809 184.562 45.0979 184.784C44.6178 185.005 44.0368 185.116 43.355 185.116C42.7016 185.116 42.1363 185.012 41.659 184.805C41.1817 184.598 40.8081 184.304 40.5383 183.923C40.2684 183.539 40.1192 183.085 40.0908 182.559H41.4118C41.4374 182.875 41.5397 183.137 41.7187 183.348C41.9005 183.555 42.132 183.71 42.4133 183.812C42.6973 183.912 43.0084 183.961 43.3465 183.961C43.7187 183.961 44.0496 183.903 44.3394 183.787C44.632 183.667 44.8621 183.502 45.0297 183.292C45.1973 183.079 45.2812 182.831 45.2812 182.546C45.2812 182.288 45.2073 182.076 45.0596 181.912C44.9147 181.747 44.7172 181.61 44.4672 181.502C44.2201 181.394 43.9402 181.299 43.6277 181.217L42.5965 180.936C41.8976 180.745 41.3437 180.466 40.9346 180.096C40.5283 179.727 40.3252 179.238 40.3252 178.63C40.3252 178.127 40.4615 177.689 40.7343 177.314C41.007 176.939 41.3763 176.647 41.8422 176.44C42.3081 176.23 42.8337 176.125 43.4189 176.125C44.0098 176.125 44.5312 176.228 44.9829 176.436C45.4374 176.643 45.7954 176.929 46.0567 177.292C46.3181 177.653 46.4544 178.068 46.4658 178.537H45.1959Z" fill="#76ABAE"/>
<path d="M440.211 188.197L250 50L59.7887 188.197L132.443 411.803H367.557L440.211 188.197Z" stroke="#31363F" stroke-width="2" stroke-linejoin="round"/>
<path opacity="0.3" d="M382.202 205.766L251.31 71.3454C250.574 70.589 249.376 70.5353 248.575 71.2228L98.8427 199.689C98.23 200.215 97.9934 201.057 98.2429 201.825L155.406 377.756C155.719 378.719 156.701 379.296 157.694 379.101L319.516 347.282C320.155 347.157 320.692 346.729 320.957 346.135L382.595 207.976C382.929 207.228 382.773 206.353 382.202 205.766Z" fill="#76ABAE" stroke="#76ABAE"/>
<path d="M382.202 205.766L251.31 71.3454C250.574 70.589 249.376 70.5353 248.575 71.2228L98.8427 199.689C98.23 200.215 97.9934 201.057 98.2429 201.825L155.406 377.756C155.719 378.719 156.701 379.296 157.694 379.101L319.516 347.282C320.155 347.157 320.692 346.729 320.957 346.135L382.595 207.976C382.929 207.228 382.773 206.353 382.202 205.766Z" stroke="#76ABAE" stroke-width="4" stroke-linejoin="round"/>
<circle cx="250" cy="70" r="6" fill="#76ABAE"/>
<circle cx="383.148" cy="206.738" r="6" fill="#76ABAE"/>
<circle cx="320.534" cy="347.082" r="6" fill="#76ABAE"/>
<circle cx="155.954" cy="379.443" r="6" fill="#76ABAE"/>
<circle cx="97.8309" cy="200.557" r="6" fill="#76ABAE"/>
</svg>
