<svg width="859" height="104" viewBox="0 0 859 104" fill="none" xmlns="http://www.w3.org/2000/svg">
<rect x="859" width="104" height="859" transform="rotate(90 859 0)" fill="#393E46"/>
<rect x="843" y="10" width="83" height="48" rx="24" transform="rotate(90 843 10)" fill="#948979"/>
<rect x="65" y="10" width="83" height="48" rx="24" transform="rotate(90 65 10)" fill="#948979"/>
<path d="M121.656 34.472V47.752L137.656 47.752L137.656 53.384L121.656 53.384L121.656 67.368L141.144 67.368V73L114.232 73L114.232 28.84L140.792 28.84L139.96 34.472L121.656 34.472ZM186.911 24.84L194.079 25.64L194.079 73H187.775L187.263 68.84C186.111 70.44 184.735 71.6773 183.135 72.552C181.535 73.4267 179.743 73.864 177.759 73.864C174.858 73.864 172.468 73.128 170.591 71.656C168.714 70.1627 167.316 68.0827 166.399 65.416C165.503 62.728 165.055 59.624 165.055 56.104C165.055 52.6693 165.588 49.6187 166.655 46.952C167.722 44.264 169.247 42.152 171.231 40.616C173.215 39.08 175.604 38.312 178.399 38.312C180.17 38.312 181.759 38.632 183.167 39.272C184.575 39.8907 185.823 40.7973 186.911 41.992V24.84ZM180.287 43.816C177.876 43.816 175.999 44.8187 174.655 46.824C173.311 48.808 172.639 51.9013 172.639 56.104C172.639 58.984 172.916 61.3307 173.471 63.144C174.026 64.936 174.826 66.2587 175.871 67.112C176.916 67.944 178.175 68.36 179.647 68.36C181.268 68.36 182.676 67.8907 183.871 66.952C185.066 66.0133 186.079 64.8827 186.911 63.56V47.56C186.079 46.3653 185.108 45.448 183.999 44.808C182.89 44.1467 181.652 43.816 180.287 43.816ZM228.614 39.208V62.824C228.614 64.8293 229.009 66.2587 229.798 67.112C230.609 67.9653 231.825 68.392 233.446 68.392C234.982 68.392 236.465 67.9333 237.894 67.016C239.323 66.0987 240.454 64.9787 241.286 63.656L241.286 39.208L248.454 39.208L248.454 73H242.278L241.83 68.68C240.571 70.3653 238.982 71.656 237.062 72.552C235.142 73.4267 233.179 73.864 231.174 73.864C227.91 73.864 225.467 72.968 223.846 71.176C222.246 69.3627 221.446 66.8773 221.446 63.72V39.208H228.614ZM292.109 67.976C293.688 67.976 295.16 67.7093 296.525 67.176C297.89 66.6213 299.192 65.9067 300.429 65.032L303.757 69.64C302.285 70.8987 300.493 71.9227 298.381 72.712C296.29 73.48 294.125 73.864 291.885 73.864C288.429 73.864 285.474 73.1387 283.021 71.688C280.568 70.216 278.69 68.1573 277.389 65.512C276.088 62.8667 275.437 59.784 275.437 56.264C275.437 52.8293 276.088 49.768 277.389 47.08C278.712 44.3707 280.61 42.2373 283.085 40.68C285.56 39.1013 288.536 38.312 292.013 38.312C294.317 38.312 296.44 38.6533 298.381 39.336C300.322 40.0187 302.104 41.032 303.725 42.376L300.429 46.888C299.106 45.9707 297.752 45.2773 296.365 44.808C295 44.3173 293.592 44.072 292.141 44.072C289.474 44.072 287.288 45.0533 285.581 47.016C283.896 48.9787 283.053 52.0613 283.053 56.264C283.053 59.08 283.437 61.352 284.205 63.08C284.994 64.7867 286.072 66.0347 287.437 66.824C288.802 67.592 290.36 67.976 292.109 67.976ZM356.02 64.712C356.02 66.0347 356.223 67.0053 356.628 67.624C357.033 68.2213 357.684 68.6693 358.58 68.968L356.98 73.832C355.316 73.64 353.887 73.1813 352.692 72.456C351.497 71.7307 350.591 70.632 349.972 69.16C348.735 70.7173 347.167 71.8907 345.268 72.68C343.369 73.4693 341.343 73.864 339.188 73.864C335.775 73.864 333.065 72.904 331.06 70.984C329.076 69.0427 328.084 66.504 328.084 63.368C328.084 59.8053 329.471 57.064 332.244 55.144C335.017 53.224 338.985 52.264 344.148 52.264H348.98V50.056C348.98 47.88 348.319 46.312 346.996 45.352C345.695 44.392 343.849 43.912 341.46 43.912C340.351 43.912 339.007 44.0613 337.428 44.36C335.849 44.6373 334.196 45.0747 332.468 45.672L330.708 40.616C332.82 39.8267 334.889 39.2507 336.916 38.888C338.943 38.504 340.82 38.312 342.548 38.312C347.071 38.312 350.441 39.3147 352.66 41.32C354.9 43.3253 356.02 46.0987 356.02 49.64V64.712ZM341.364 68.584C342.815 68.584 344.233 68.2 345.62 67.432C347.007 66.664 348.127 65.5867 348.98 64.2V56.744H345.012C341.641 56.744 339.231 57.3093 337.78 58.44C336.329 59.5493 335.604 61.0853 335.604 63.048C335.604 64.84 336.084 66.216 337.044 67.176C338.025 68.1147 339.465 68.584 341.364 68.584ZM412.795 71.208C411.558 71.9973 410.075 72.6373 408.347 73.128C406.619 73.6187 404.816 73.864 402.939 73.864C399.014 73.864 396.027 72.8507 393.979 70.824C391.952 68.776 390.939 66.088 390.939 62.76V44.424H383.419V39.208L390.939 39.208V31.656L398.107 30.792V39.208H409.499L408.699 44.424L398.107 44.424V62.696C398.107 64.5093 398.555 65.864 399.451 66.76C400.368 67.6347 401.862 68.072 403.931 68.072C405.168 68.072 406.31 67.9227 407.355 67.624C408.4 67.3253 409.35 66.9413 410.203 66.472L412.795 71.208ZM457.41 39.208V67.752H466.594V73L440.13 73V67.752H450.242V44.456H440.45V39.208H457.41ZM452.418 22.664C453.826 22.664 454.957 23.0907 455.81 23.944C456.685 24.7973 457.122 25.864 457.122 27.144C457.122 28.424 456.685 29.5013 455.81 30.376C454.957 31.2507 453.826 31.688 452.418 31.688C451.053 31.688 449.933 31.2507 449.058 30.376C448.183 29.5013 447.746 28.424 447.746 27.144C447.746 25.864 448.183 24.7973 449.058 23.944C449.933 23.0907 451.053 22.664 452.418 22.664ZM506.857 38.312C510.164 38.312 512.948 39.048 515.209 40.52C517.47 41.992 519.177 44.0507 520.329 46.696C521.502 49.3413 522.089 52.456 522.089 56.04C522.089 59.6027 521.492 62.728 520.297 65.416C519.124 68.0827 517.396 70.1627 515.113 71.656C512.852 73.128 510.089 73.864 506.825 73.864C503.561 73.864 500.788 73.1493 498.505 71.72C496.244 70.2693 494.516 68.2107 493.321 65.544C492.148 62.8773 491.561 59.7307 491.561 56.104C491.561 52.584 492.148 49.4907 493.321 46.824C494.516 44.1573 496.254 42.0773 498.537 40.584C500.82 39.0693 503.593 38.312 506.857 38.312ZM506.857 43.88C504.276 43.88 502.334 44.872 501.033 46.856C499.732 48.8187 499.081 51.9013 499.081 56.104C499.081 60.2853 499.721 63.368 501.001 65.352C502.302 67.336 504.244 68.328 506.825 68.328C509.406 68.328 511.337 67.336 512.617 65.352C513.918 63.368 514.569 60.264 514.569 56.04C514.569 51.88 513.929 48.8187 512.649 46.856C511.369 44.872 509.438 43.88 506.857 43.88ZM547.696 73V39.208H553.872L554.416 43.592C555.824 41.864 557.488 40.552 559.408 39.656C561.328 38.76 563.301 38.312 565.328 38.312C568.485 38.312 570.843 39.1973 572.4 40.968C573.979 42.7173 574.768 45.1813 574.768 48.36V73H567.6V51.912C567.6 49.9493 567.483 48.3707 567.248 47.176C567.013 45.9813 566.544 45.1173 565.84 44.584C565.157 44.0507 564.133 43.784 562.768 43.784C561.68 43.784 560.645 44.0187 559.664 44.488C558.683 44.9573 557.787 45.576 556.976 46.344C556.165 47.0907 555.461 47.8907 554.864 48.744V73H547.696Z" fill="#76ABAE"/>
<rect x="777" y="28" width="48" height="177" rx="24" transform="rotate(90 777 28)" fill="#948979"/>
<rect x="740" y="33" width="38" height="14" transform="rotate(90 740 33)" fill="#76ABAE"/>
<rect x="719" y="33" width="38" height="14" transform="rotate(90 719 33)" fill="#76ABAE"/>
</svg>
