<svg width="843" height="123" viewBox="0 0 843 123" fill="none" xmlns="http://www.w3.org/2000/svg">
<rect x="843" width="123" height="843" rx="26" transform="rotate(90 843 0)" fill="#31363F"/>
<path d="M240.32 52.76C240.32 50.7333 239.925 49.112 239.136 47.896C238.368 46.68 237.269 45.7947 235.84 45.24C234.432 44.6853 232.768 44.408 230.848 44.408L225.536 44.408L225.536 61.592H230.944C232.8 61.592 234.432 61.3147 235.84 60.76C237.248 60.2053 238.347 59.288 239.136 58.008C239.925 56.728 240.32 54.9787 240.32 52.76ZM248.128 52.696C248.128 56.1307 247.392 58.9147 245.92 61.048C244.469 63.1813 242.443 64.7493 239.84 65.752C237.237 66.7547 234.251 67.256 230.88 67.256H225.536V83H218.112L218.112 38.84L230.368 38.84C235.915 38.84 240.256 39.9813 243.392 42.264C246.549 44.5253 248.128 48.0027 248.128 52.696ZM272.391 83V77.88H277.351V54.296H272.391V49.208L282.823 49.208L284.135 57.048C285.394 54.2107 286.951 52.056 288.807 50.584C290.684 49.0907 293.095 48.344 296.039 48.344C297.042 48.344 297.938 48.4293 298.727 48.6C299.538 48.7493 300.338 48.952 301.127 49.208L298.983 55.352C298.3 55.16 297.66 55.0213 297.063 54.936C296.466 54.8293 295.804 54.776 295.079 54.776C292.626 54.776 290.503 55.6933 288.711 57.528C286.94 59.3627 285.543 61.9653 284.519 65.336V77.88H291.335V83H272.391ZM294.791 61.656V53.336L295.687 49.208H301.127L299.911 61.656L294.791 61.656ZM339.982 48.312C343.289 48.312 346.073 49.048 348.334 50.52C350.595 51.992 352.302 54.0507 353.454 56.696C354.627 59.3413 355.214 62.456 355.214 66.04C355.214 69.6027 354.617 72.728 353.422 75.416C352.249 78.0827 350.521 80.1627 348.238 81.656C345.977 83.128 343.214 83.864 339.95 83.864C336.686 83.864 333.913 83.1493 331.63 81.72C329.369 80.2693 327.641 78.2107 326.446 75.544C325.273 72.8773 324.686 69.7307 324.686 66.104C324.686 62.584 325.273 59.4907 326.446 56.824C327.641 54.1573 329.379 52.0773 331.662 50.584C333.945 49.0693 336.718 48.312 339.982 48.312ZM339.982 53.88C337.401 53.88 335.459 54.872 334.158 56.856C332.857 58.8187 332.206 61.9013 332.206 66.104C332.206 70.2853 332.846 73.368 334.126 75.352C335.427 77.336 337.369 78.328 339.95 78.328C342.531 78.328 344.462 77.336 345.742 75.352C347.043 73.368 347.694 70.264 347.694 66.04C347.694 61.88 347.054 58.8187 345.774 56.856C344.494 54.872 342.563 53.88 339.982 53.88ZM404.277 49.208V75.896C404.277 80.0987 403.402 83.5867 401.653 86.36C399.925 89.1333 397.386 91.3413 394.037 92.984C390.688 94.648 386.602 95.9173 381.781 96.792L380.629 91.288C383.978 90.648 386.89 89.7627 389.365 88.632C391.84 87.5013 393.749 85.9547 395.093 83.992C396.437 82.0293 397.109 79.4907 397.109 76.376V54.456L383.765 54.456V49.208L404.277 49.208ZM398.677 32.664C400.064 32.664 401.194 33.0907 402.069 33.944C402.944 34.7973 403.381 35.864 403.381 37.144C403.381 38.424 402.944 39.5013 402.069 40.376C401.194 41.2507 400.064 41.688 398.677 41.688C397.29 41.688 396.16 41.2507 395.285 40.376C394.432 39.5013 394.005 38.424 394.005 37.144C394.005 35.864 394.432 34.7973 395.285 33.944C396.16 33.0907 397.29 32.664 398.677 32.664ZM441.148 68.408C441.297 70.712 441.788 72.6 442.62 74.072C443.452 75.5227 444.54 76.5893 445.884 77.272C447.249 77.9547 448.743 78.296 450.364 78.296C452.028 78.296 453.564 78.04 454.972 77.528C456.38 77.016 457.799 76.2907 459.228 75.352L462.332 79.64C460.753 80.92 458.908 81.944 456.796 82.712C454.684 83.48 452.423 83.864 450.012 83.864C446.513 83.864 443.548 83.1173 441.116 81.624C438.705 80.1307 436.871 78.0507 435.612 75.384C434.353 72.7173 433.724 69.6347 433.724 66.136C433.724 62.744 434.343 59.7147 435.58 57.048C436.817 54.36 438.588 52.2373 440.892 50.68C443.196 49.1013 445.948 48.312 449.148 48.312C452.156 48.312 454.737 48.9947 456.892 50.36C459.068 51.7253 460.743 53.6667 461.916 56.184C463.111 58.68 463.708 61.688 463.708 65.208C463.708 65.784 463.687 66.36 463.644 66.936C463.623 67.4907 463.591 67.9813 463.548 68.408H441.148ZM449.212 53.624C446.972 53.624 445.116 54.424 443.644 56.024C442.193 57.624 441.351 60.12 441.116 63.512L456.764 63.512C456.7 60.3333 456.017 57.8907 454.716 56.184C453.436 54.4773 451.601 53.624 449.212 53.624ZM505.859 77.976C507.438 77.976 508.91 77.7093 510.275 77.176C511.64 76.6213 512.942 75.9067 514.179 75.032L517.507 79.64C516.035 80.8987 514.243 81.9227 512.131 82.712C510.04 83.48 507.875 83.864 505.635 83.864C502.179 83.864 499.224 83.1387 496.771 81.688C494.318 80.216 492.44 78.1573 491.139 75.512C489.838 72.8667 489.187 69.784 489.187 66.264C489.187 62.8293 489.838 59.768 491.139 57.08C492.462 54.3707 494.36 52.2373 496.835 50.68C499.31 49.1013 502.286 48.312 505.763 48.312C508.067 48.312 510.19 48.6533 512.131 49.336C514.072 50.0187 515.854 51.032 517.475 52.376L514.179 56.888C512.856 55.9707 511.502 55.2773 510.115 54.808C508.75 54.3173 507.342 54.072 505.891 54.072C503.224 54.072 501.038 55.0533 499.331 57.016C497.646 58.9787 496.803 62.0613 496.803 66.264C496.803 69.08 497.187 71.352 497.955 73.08C498.744 74.7867 499.822 76.0347 501.187 76.824C502.552 77.592 504.11 77.976 505.859 77.976ZM572.17 81.208C570.933 81.9973 569.45 82.6373 567.722 83.128C565.994 83.6187 564.191 83.864 562.314 83.864C558.389 83.864 555.402 82.8507 553.354 80.824C551.327 78.776 550.314 76.088 550.314 72.76V54.424H542.794V49.208H550.314V41.656L557.482 40.792V49.208L568.874 49.208L568.074 54.424L557.482 54.424V72.696C557.482 74.5093 557.93 75.864 558.826 76.76C559.743 77.6347 561.237 78.072 563.306 78.072C564.543 78.072 565.685 77.9227 566.73 77.624C567.775 77.3253 568.725 76.9413 569.578 76.472L572.17 81.208ZM610.609 78.36C612.849 78.36 614.63 77.9653 615.953 77.176C617.276 76.3653 617.937 75.256 617.937 73.848C617.937 72.9307 617.745 72.152 617.361 71.512C616.977 70.8507 616.209 70.2533 615.057 69.72C613.905 69.1653 612.156 68.5893 609.809 67.992C607.59 67.416 605.638 66.7333 603.953 65.944C602.289 65.1547 600.998 64.1307 600.081 62.872C599.164 61.6133 598.705 59.992 598.705 58.008C598.705 56.0667 599.249 54.3707 600.337 52.92C601.425 51.4693 602.982 50.3387 605.009 49.528C607.057 48.7173 609.457 48.312 612.209 48.312C615.046 48.312 617.521 48.6853 619.633 49.432C621.745 50.1787 623.548 51.1067 625.041 52.216L622.033 56.728C620.71 55.8533 619.26 55.1387 617.681 54.584C616.124 54.0293 614.364 53.752 612.401 53.752C610.118 53.752 608.476 54.0933 607.473 54.776C606.492 55.4587 606.001 56.3653 606.001 57.496C606.001 58.328 606.246 59.032 606.737 59.608C607.249 60.1627 608.124 60.6853 609.361 61.176C610.598 61.6453 612.348 62.2 614.609 62.84C616.806 63.4373 618.716 64.1413 620.337 64.952C621.98 65.7627 623.249 66.84 624.145 68.184C625.062 69.5067 625.521 71.2347 625.521 73.368C625.521 75.8 624.817 77.7947 623.409 79.352C622.022 80.888 620.188 82.0293 617.905 82.776C615.644 83.5013 613.212 83.864 610.609 83.864C607.473 83.864 604.764 83.416 602.481 82.52C600.198 81.6027 598.278 80.4613 596.721 79.096L600.529 74.744C601.852 75.8107 603.366 76.6853 605.073 77.368C606.78 78.0293 608.625 78.36 610.609 78.36Z" fill="#76ABAE"/>
<rect x="108" width="123" height="15" transform="rotate(90 108 0)" fill="#76ABAE" fill-opacity="0.7"/>
<rect x="129" width="123" height="15" transform="rotate(90 129 0)" fill="#76ABAE" fill-opacity="0.7"/>
<rect x="150" width="123" height="15" transform="rotate(90 150 0)" fill="#76ABAE" fill-opacity="0.7"/>
<rect x="763" width="123" height="15" transform="rotate(90 763 0)" fill="#222831"/>
</svg>
