<svg width="805" height="100" viewBox="0 0 805 100" fill="none" xmlns="http://www.w3.org/2000/svg">
<rect x="796" y="4" width="91" height="796" transform="rotate(90 796 4)" fill="#31363F"/>
<rect x="100" width="100" height="100" rx="5" transform="rotate(90 100 0)" fill="#50577A"/>
<rect x="805" width="100" height="100" rx="5" transform="rotate(90 805 0)" fill="#50577A"/>
<path d="M152.656 32.472V45.752L168.656 45.752L168.656 51.384L152.656 51.384V65.368L172.144 65.368V71L145.232 71L145.232 26.84L171.792 26.84L170.96 32.472L152.656 32.472ZM203.063 71H195.127L207.255 53.176L196.471 37.208L204.727 37.208L211.639 49.112L218.551 37.208H226.423L215.863 52.888L228.023 71H219.607L211.319 57.208L203.063 71ZM268.926 36.312C271.913 36.312 274.302 37.048 276.094 38.52C277.886 39.9707 279.187 42.0293 279.998 44.696C280.809 47.3413 281.214 50.456 281.214 54.04C281.214 57.4747 280.723 60.536 279.742 63.224C278.761 65.912 277.299 68.024 275.358 69.56C273.438 71.096 271.049 71.864 268.19 71.864C264.649 71.864 261.79 70.616 259.614 68.12V83.992L252.446 84.792L252.446 37.208H258.686L259.134 41.56C260.414 39.8107 261.897 38.4987 263.582 37.624C265.289 36.7493 267.07 36.312 268.926 36.312ZM266.942 41.848C265.342 41.848 263.934 42.328 262.718 43.288C261.502 44.248 260.467 45.3787 259.614 46.68V62.488C260.425 63.704 261.385 64.6427 262.494 65.304C263.625 65.944 264.894 66.264 266.302 66.264C268.713 66.264 270.547 65.2933 271.806 63.352C273.065 61.4107 273.694 58.3173 273.694 54.072C273.694 51.192 273.438 48.856 272.926 47.064C272.435 45.2507 271.689 43.928 270.686 43.096C269.705 42.264 268.457 41.848 266.942 41.848ZM312.773 56.408C312.922 58.712 313.413 60.6 314.245 62.072C315.077 63.5227 316.165 64.5893 317.509 65.272C318.874 65.9547 320.368 66.296 321.989 66.296C323.653 66.296 325.189 66.04 326.597 65.528C328.005 65.016 329.424 64.2907 330.853 63.352L333.957 67.64C332.378 68.92 330.533 69.944 328.421 70.712C326.309 71.48 324.048 71.864 321.637 71.864C318.138 71.864 315.173 71.1173 312.741 69.624C310.33 68.1307 308.496 66.0507 307.237 63.384C305.978 60.7173 305.349 57.6347 305.349 54.136C305.349 50.744 305.968 47.7147 307.205 45.048C308.442 42.36 310.213 40.2373 312.517 38.68C314.821 37.1013 317.573 36.312 320.773 36.312C323.781 36.312 326.362 36.9947 328.517 38.36C330.693 39.7253 332.368 41.6667 333.541 44.184C334.736 46.68 335.333 49.688 335.333 53.208C335.333 53.784 335.312 54.36 335.269 54.936C335.248 55.4907 335.216 55.9813 335.173 56.408L312.773 56.408ZM320.837 41.624C318.597 41.624 316.741 42.424 315.269 44.024C313.818 45.624 312.976 48.12 312.741 51.512L328.389 51.512C328.325 48.3333 327.642 45.8907 326.341 44.184C325.061 42.4773 323.226 41.624 320.837 41.624ZM361.516 71V65.88H366.476V42.296H361.516V37.208H371.948L373.26 45.048C374.519 42.2107 376.076 40.056 377.932 38.584C379.809 37.0907 382.22 36.344 385.164 36.344C386.167 36.344 387.063 36.4293 387.852 36.6C388.663 36.7493 389.463 36.952 390.252 37.208L388.108 43.352C387.425 43.16 386.785 43.0213 386.188 42.936C385.591 42.8293 384.929 42.776 384.204 42.776C381.751 42.776 379.628 43.6933 377.836 45.528C376.065 47.3627 374.668 49.9653 373.644 53.336V65.88H380.46V71H361.516ZM383.916 49.656V41.336L384.812 37.208L390.252 37.208L389.036 49.656H383.916ZM434.035 37.208V65.752H443.219V71H416.755V65.752H426.867V42.456H417.075V37.208L434.035 37.208ZM429.043 20.664C430.451 20.664 431.582 21.0907 432.435 21.944C433.31 22.7973 433.747 23.864 433.747 25.144C433.747 26.424 433.31 27.5013 432.435 28.376C431.582 29.2507 430.451 29.688 429.043 29.688C427.678 29.688 426.558 29.2507 425.683 28.376C424.808 27.5013 424.371 26.424 424.371 25.144C424.371 23.864 424.808 22.7973 425.683 21.944C426.558 21.0907 427.678 20.664 429.043 20.664ZM475.898 56.408C476.047 58.712 476.538 60.6 477.37 62.072C478.202 63.5227 479.29 64.5893 480.634 65.272C481.999 65.9547 483.493 66.296 485.114 66.296C486.778 66.296 488.314 66.04 489.722 65.528C491.13 65.016 492.549 64.2907 493.978 63.352L497.082 67.64C495.503 68.92 493.658 69.944 491.546 70.712C489.434 71.48 487.173 71.864 484.762 71.864C481.263 71.864 478.298 71.1173 475.866 69.624C473.455 68.1307 471.621 66.0507 470.362 63.384C469.103 60.7173 468.474 57.6347 468.474 54.136C468.474 50.744 469.093 47.7147 470.33 45.048C471.567 42.36 473.338 40.2373 475.642 38.68C477.946 37.1013 480.698 36.312 483.898 36.312C486.906 36.312 489.487 36.9947 491.642 38.36C493.818 39.7253 495.493 41.6667 496.666 44.184C497.861 46.68 498.458 49.688 498.458 53.208C498.458 53.784 498.437 54.36 498.394 54.936C498.373 55.4907 498.341 55.9813 498.298 56.408L475.898 56.408ZM483.962 41.624C481.722 41.624 479.866 42.424 478.394 44.024C476.943 45.624 476.101 48.12 475.866 51.512L491.514 51.512C491.45 48.3333 490.767 45.8907 489.466 44.184C488.186 42.4773 486.351 41.624 483.962 41.624ZM524.321 71V37.208L530.497 37.208L531.041 41.592C532.449 39.864 534.113 38.552 536.033 37.656C537.953 36.76 539.926 36.312 541.953 36.312C545.11 36.312 547.468 37.1973 549.025 38.968C550.604 40.7173 551.393 43.1813 551.393 46.36V71H544.225V49.912C544.225 47.9493 544.108 46.3707 543.873 45.176C543.638 43.9813 543.169 43.1173 542.465 42.584C541.782 42.0507 540.758 41.784 539.393 41.784C538.305 41.784 537.27 42.0187 536.289 42.488C535.308 42.9573 534.412 43.576 533.601 44.344C532.79 45.0907 532.086 45.8907 531.489 46.744V71H524.321ZM594.984 65.976C596.563 65.976 598.035 65.7093 599.4 65.176C600.765 64.6213 602.067 63.9067 603.304 63.032L606.632 67.64C605.16 68.8987 603.368 69.9227 601.256 70.712C599.165 71.48 597 71.864 594.76 71.864C591.304 71.864 588.349 71.1387 585.896 69.688C583.443 68.216 581.565 66.1573 580.264 63.512C578.963 60.8667 578.312 57.784 578.312 54.264C578.312 50.8293 578.963 47.768 580.264 45.08C581.587 42.3707 583.485 40.2373 585.96 38.68C588.435 37.1013 591.411 36.312 594.888 36.312C597.192 36.312 599.315 36.6533 601.256 37.336C603.197 38.0187 604.979 39.032 606.6 40.376L603.304 44.888C601.981 43.9707 600.627 43.2773 599.24 42.808C597.875 42.3173 596.467 42.072 595.016 42.072C592.349 42.072 590.163 43.0533 588.456 45.016C586.771 46.9787 585.928 50.0613 585.928 54.264C585.928 57.08 586.312 59.352 587.08 61.08C587.869 62.7867 588.947 64.0347 590.312 64.824C591.677 65.592 593.235 65.976 594.984 65.976ZM639.023 56.408C639.172 58.712 639.663 60.6 640.495 62.072C641.327 63.5227 642.415 64.5893 643.759 65.272C645.124 65.9547 646.618 66.296 648.239 66.296C649.903 66.296 651.439 66.04 652.847 65.528C654.255 65.016 655.674 64.2907 657.103 63.352L660.207 67.64C658.628 68.92 656.783 69.944 654.671 70.712C652.559 71.48 650.298 71.864 647.887 71.864C644.388 71.864 641.423 71.1173 638.991 69.624C636.58 68.1307 634.746 66.0507 633.487 63.384C632.228 60.7173 631.599 57.6347 631.599 54.136C631.599 50.744 632.218 47.7147 633.455 45.048C634.692 42.36 636.463 40.2373 638.767 38.68C641.071 37.1013 643.823 36.312 647.023 36.312C650.031 36.312 652.612 36.9947 654.767 38.36C656.943 39.7253 658.618 41.6667 659.791 44.184C660.986 46.68 661.583 49.688 661.583 53.208C661.583 53.784 661.562 54.36 661.519 54.936C661.498 55.4907 661.466 55.9813 661.423 56.408L639.023 56.408ZM647.087 41.624C644.847 41.624 642.991 42.424 641.519 44.024C640.068 45.624 639.226 48.12 638.991 51.512H654.639C654.575 48.3333 653.892 45.8907 652.591 44.184C651.311 42.4773 649.476 41.624 647.087 41.624Z" fill="#76ABAE"/>
</svg>
