<svg width="283" height="276" viewBox="0 0 283 276" fill="none" xmlns="http://www.w3.org/2000/svg">
<path d="M140 176L183.301 251H96.6987L140 176Z" fill="#31363F"/>
<ellipse cx="140" cy="120.5" rx="75" ry="72.5" fill="#76ABAE"/>
<ellipse cx="232" cy="16.5" rx="17" ry="16.5" fill="#76ABAE"/>
<ellipse cx="266" cy="104.5" rx="17" ry="16.5" fill="#76ABAE"/>
<ellipse cx="17" cy="159.5" rx="17" ry="16.5" fill="#76ABAE"/>
<ellipse cx="48" cy="41.5" rx="17" ry="16.5" fill="#76ABAE"/>
<path d="M108.5 134V121.46H99.5V134H94.86V106.4H99.5V117.64H108.5V106.4H113.14V134H108.5ZM128.004 112.32C130.071 112.32 131.811 112.78 133.224 113.7C134.638 114.62 135.704 115.907 136.424 117.56C137.158 119.213 137.524 121.16 137.524 123.4C137.524 125.627 137.151 127.58 136.404 129.26C135.671 130.927 134.591 132.227 133.164 133.16C131.751 134.08 130.024 134.54 127.984 134.54C125.944 134.54 124.211 134.093 122.784 133.2C121.371 132.293 120.291 131.007 119.544 129.34C118.811 127.673 118.444 125.707 118.444 123.44C118.444 121.24 118.811 119.307 119.544 117.64C120.291 115.973 121.378 114.673 122.804 113.74C124.231 112.793 125.964 112.32 128.004 112.32ZM128.004 115.8C126.391 115.8 125.178 116.42 124.364 117.66C123.551 118.887 123.144 120.813 123.144 123.44C123.144 126.053 123.544 127.98 124.344 129.22C125.158 130.46 126.371 131.08 127.984 131.08C129.598 131.08 130.804 130.46 131.604 129.22C132.418 127.98 132.824 126.04 132.824 123.4C132.824 120.8 132.424 118.887 131.624 117.66C130.824 116.42 129.618 115.8 128.004 115.8ZM158.089 112.32C158.889 112.32 159.609 112.493 160.249 112.84C160.889 113.187 161.389 113.793 161.749 114.66C162.122 115.527 162.309 116.74 162.309 118.3V134H158.329V118.92C158.329 117.813 158.249 117.02 158.089 116.54C157.942 116.06 157.549 115.82 156.909 115.82C156.402 115.82 155.889 115.98 155.369 116.3C154.849 116.607 154.322 117.14 153.789 117.9V134H150.169V118.92C150.169 117.813 150.089 117.02 149.929 116.54C149.782 116.06 149.389 115.82 148.749 115.82C148.229 115.82 147.709 115.98 147.189 116.3C146.682 116.607 146.162 117.14 145.629 117.9V134H141.629V112.88H145.009L145.309 115.16C145.909 114.32 146.562 113.64 147.269 113.12C147.975 112.587 148.829 112.32 149.829 112.32C150.629 112.32 151.355 112.52 152.009 112.92C152.662 113.32 153.142 114.02 153.449 115.02C154.035 114.22 154.702 113.573 155.449 113.08C156.195 112.573 157.075 112.32 158.089 112.32ZM171.233 124.88C171.326 126.32 171.633 127.5 172.153 128.42C172.673 129.327 173.353 129.993 174.193 130.42C175.046 130.847 175.98 131.06 176.993 131.06C178.033 131.06 178.993 130.9 179.873 130.58C180.753 130.26 181.64 129.807 182.533 129.22L184.473 131.9C183.486 132.7 182.333 133.34 181.013 133.82C179.693 134.3 178.28 134.54 176.773 134.54C174.586 134.54 172.733 134.073 171.213 133.14C169.706 132.207 168.56 130.907 167.773 129.24C166.986 127.573 166.593 125.647 166.593 123.46C166.593 121.34 166.98 119.447 167.753 117.78C168.526 116.1 169.633 114.773 171.073 113.8C172.513 112.813 174.233 112.32 176.233 112.32C178.113 112.32 179.726 112.747 181.073 113.6C182.433 114.453 183.48 115.667 184.213 117.24C184.96 118.8 185.333 120.68 185.333 122.88C185.333 123.24 185.32 123.6 185.293 123.96C185.28 124.307 185.26 124.613 185.233 124.88H171.233ZM176.273 115.64C174.873 115.64 173.713 116.14 172.793 117.14C171.886 118.14 171.36 119.7 171.213 121.82H180.993C180.953 119.833 180.526 118.307 179.713 117.24C178.913 116.173 177.766 115.64 176.273 115.64Z" fill="#EEEEEE"/>
</svg>
